# xmcd
#
# Track frame offsets:
#	150
#	29162
#	52407
#	72522
#	95917
#	118332
#	148122
#	171367
#	191777
#	219325
#	241400
#	268067
#
# Disc length: 3925 seconds
#
# Revision: 3
# Processed by: cddbd v1.5.2PL0 Copyright (c) Steve Scherf et al.
# Submitted via: EZCDAudioConverter 8.0.2.1
#
DISCID=d10f530c
DTITLE=Khánh Ly, Hương Lan, Tuấn Vũ - Ai Về Xứ Việt
DYEAR=1990
DGENRE=
TTITLE0=Hương Lan, Thanh Phong - Em buồn anh thương
TTITLE1=Khánh Ly - Tiếc
TTITLE2=Hương Lan - Quên
TTITLE3=Khánh Ly - Nửa đời yêu em
TTITLE4=Khánh Ly - Sài Gòn ơi ta sẽ về
TTITLE5=Hương Lan - Nhớ quê hương
TTITLE6=Tuấn Vũ - Chuyện tình
TTITLE7=Tuấn Vũ - Người khách lạ
TTITLE8=Khánh Ly - Nguoiwqf di tản buồn
TTITLE9=Tuấn Vũ - Em sắp về chưa
TTITLE10=Khánh Ly - Buồn
TTITLE11=Khánh Ly - Ai trở về xứ Việt
EXTD=
EXTT0=
EXTT1=
EXTT2=
EXTT3=
EXTT4=
EXTT5=
EXTT6=
EXTT7=
EXTT8=
EXTT9=
EXTT10=
EXTT11=
PLAYORDER=
